<svg xmlns="http://www.w3.org/2000/svg" width="27.956" height="27.956" viewBox="0 0 27.956 27.956">
  <path id="_3916639" data-name="3916639" d="M24.462,6.989H20.967a6.989,6.989,0,0,0-13.978,0H3.495A3.5,3.5,0,0,0,0,10.484V22.132a5.831,5.831,0,0,0,5.824,5.824H22.132a5.831,5.831,0,0,0,5.824-5.824V10.484A3.5,3.5,0,0,0,24.462,6.989ZM13.978,2.33a4.659,4.659,0,0,1,4.659,4.659H9.319A4.659,4.659,0,0,1,13.978,2.33Zm11.648,19.8a3.5,3.5,0,0,1-3.495,3.495H5.824A3.5,3.5,0,0,1,2.33,22.132V10.484A1.165,1.165,0,0,1,3.495,9.319H6.989v2.33a1.165,1.165,0,0,0,2.33,0V9.319h9.319v2.33a1.165,1.165,0,0,0,2.33,0V9.319h3.495a1.165,1.165,0,0,1,1.165,1.165Z" fill="#3d3d3d"/>
</svg>

