<svg id="_3916598" data-name="3916598" xmlns="http://www.w3.org/2000/svg" width="20.134" height="20.64" viewBox="0 0 20.134 20.64">
  <path id="Path_1069" data-name="Path 1069" d="M19.534,3.506a2.574,2.574,0,0,0-1.981-.926H3.648l-.036-.3A2.58,2.58,0,0,0,1.051,0H.86a.86.86,0,0,0,0,1.72h.191a.86.86,0,0,1,.854.759L3.088,12.542a4.3,4.3,0,0,0,4.271,3.8H16.34a.86.86,0,0,0,0-1.72H7.359A2.58,2.58,0,0,1,4.934,12.9H15.185a4.3,4.3,0,0,0,4.232-3.537l.675-3.744a2.575,2.575,0,0,0-.559-2.112ZM18.4,5.313l-.676,3.745a2.58,2.58,0,0,1-2.543,2.123H4.66L3.851,4.3h13.7A.86.86,0,0,1,18.4,5.313Z" fill="#f90"/>
  <circle id="Ellipse_30" data-name="Ellipse 30" cx="1.792" cy="1.792" r="1.792" transform="translate(3.585 17.055)" fill="#f90"/>
  <circle id="Ellipse_31" data-name="Ellipse 31" cx="1.792" cy="1.792" r="1.792" transform="translate(13.145 17.055)" fill="#f90"/>
</svg>
