<svg id="_g2WP5N_5nfEGUP8DynC_R" xmlns="http://www.w3.org/2000/svg" width="81.439" height="73.276" viewBox="0 0 81.439 73.276">
  <path id="_Gw_b6FiP9YP1Mi6ivpw34" d="M324.692,978.991l-30.7-7.645c-1.11-.247-1.85-1.973-1.726-4.316l.123-9.125a20.7,20.7,0,0,1,2.1-8.631l4.069-8.138c1.11-2.1,2.466-3.206,3.576-2.959l30.7,7.645c1.11.247,1.85,1.973,1.726,4.316l-.247,9.125a22.123,22.123,0,0,1-2.1,8.385l-4.069,8.138c-.863,2.343-2.343,3.452-3.453,3.206" transform="translate(-264.058 -937.436)" fill="#fd9800"/>
  <path id="_BeNugloa3uJGJwXTrqsy3" d="M196.3,937.822a2.405,2.405,0,0,0-.123,4.809h8.138a4.122,4.122,0,0,1,3.822,2.713l10.728,33.169-4.686,3.329a6.246,6.246,0,0,0-2.713,5.179v.37a6.447,6.447,0,0,0,6.412,6.412h53.515a2.405,2.405,0,0,0,.123-4.809H217.756a1.632,1.632,0,0,1-1.6-1.6v-.37a2.436,2.436,0,0,1,.74-1.356l5.672-3.946h38.1a5.594,5.594,0,0,0,5.3-3.822l7.522-23.182a5.631,5.631,0,0,0-5.3-7.275H221.825a2.405,2.405,0,1,0-.123,4.809h46.363a.758.758,0,0,1,.74,1.11l-1.48,4.562H228.236a1.6,1.6,0,1,0,0,3.206h38.1l-2.1,6.412H234.525a1.6,1.6,0,1,0,0,3.206h28.73l-1.85,5.8a.676.676,0,0,1-.74.493H223.428L212.7,943.988a8.737,8.737,0,0,0-8.261-6.042H196.3Z" transform="translate(-193.127 -937.115)" fill="#fff" fill-rule="evenodd"/>
  <path id="_BeNugloa3uJGJwXTrqsy3_-_Outline" data-name="_BeNugloa3uJGJwXTrqsy3 - Outline" d="M196.257,937.072h.707v.123H204.4a9.471,9.471,0,0,1,5.517,1.815,9.307,9.307,0,0,1,3.418,4.72L223.9,976.283h36.724c.029,0,.051,0,.067,0v0l1.554-4.868H234.482a2.31,2.31,0,1,1,0-4.62h29.2l1.634-5H228.193a2.31,2.31,0,1,1,0-4.62h38.574l1.337-4.118a.292.292,0,0,0,.026-.121.251.251,0,0,0-.11-.02H221.658a3.112,3.112,0,1,1,.123-6.223h46.363a6.181,6.181,0,0,1,5.01,2.565,6.27,6.27,0,0,1,.968,5.627l0,.009L266.6,978.077a6.288,6.288,0,0,1-5.973,4.306h-37.88l-5.518,3.839a2.4,2.4,0,0,0-.409.771v.355a.931.931,0,0,0,.9.9h53.761a3.112,3.112,0,1,1-.123,6.223H217.836a7.154,7.154,0,0,1-7.119-7.119v-.37a6.919,6.919,0,0,1,.841-3.344,7.06,7.06,0,0,1,2.172-2.414l4.26-3.027-10.562-32.657a3.41,3.41,0,0,0-3.156-2.242h-8.138a3.112,3.112,0,0,1,.123-6.223ZM260.623,977.7H222.871l-10.889-33.543a7.985,7.985,0,0,0-7.586-5.545h-8.833a1.6,1.6,0,0,0-1.064,1.513,1.663,1.663,0,0,0,1.636,1.759h8.138a4.815,4.815,0,0,1,4.482,3.166l.013.036,10.887,33.662-5.115,3.635a5.519,5.519,0,0,0-2.408,4.6v.37a5.711,5.711,0,0,0,5.7,5.7H271.35a1.7,1.7,0,1,0,.123-3.395H217.713a2.341,2.341,0,0,1-2.31-2.31v-.37a2.969,2.969,0,0,1,1.065-1.952l5.833-4.057h38.323a4.876,4.876,0,0,0,4.63-3.336l7.519-23.174a4.869,4.869,0,0,0-.757-4.365,4.78,4.78,0,0,0-3.871-1.99H221.782a1.7,1.7,0,1,0-.123,3.395h46.363a1.46,1.46,0,0,1,1.406,2.055l-1.632,5.031h-39.6a.9.9,0,1,0,0,1.792H267.27l-2.559,7.826H234.482a.9.9,0,1,0,0,1.792h29.7l-2.147,6.726A1.379,1.379,0,0,1,260.623,977.7Z" transform="translate(-193.084 -937.072)" fill="#fff"/>
  <path id="_A5gvgRHeQcouuHYj1Rh0Q" d="M291.3,1159.857a5.689,5.689,0,0,1-5.682,5.683h0a5.69,5.69,0,0,1-5.682-5.683h0a5.69,5.69,0,0,1,5.682-5.683h0a5.6,5.6,0,0,1,5.682,5.683Z" transform="translate(-254.309 -1092.264)" fill="#fff"/>
  <path id="_A5gvgRHeQcouuHYj1Rh0Q-2" data-name="_A5gvgRHeQcouuHYj1Rh0Q" d="M291.3,1159.857a5.689,5.689,0,0,1-5.682,5.683h0a5.69,5.69,0,0,1-5.682-5.683h0a5.69,5.69,0,0,1,5.682-5.683h0a5.6,5.6,0,0,1,5.682,5.683Z" transform="translate(-216.174 -1092.264)" fill="#fff"/>
</svg>

