<svg id="Group_1633" data-name="Group 1633" xmlns="http://www.w3.org/2000/svg" width="23.209" height="16.529" viewBox="0 0 23.209 16.529">
  <g id="_3917040" data-name="3917040">
    <path id="Path_1064" data-name="Path 1064" d="M6.967,5.934H22.44A.967.967,0,1,0,22.44,4H6.967a.967.967,0,0,0,0,1.934Z" transform="translate(-0.198 -3.398)" fill="#848484"/>
    <path id="Path_1065" data-name="Path 1065" d="M22.44,11H6.967a.967.967,0,0,0,0,1.934H22.44a.967.967,0,1,0,0-1.934Z" transform="translate(-0.198 -3.629)" fill="#848484"/>
    <path id="Path_1066" data-name="Path 1066" d="M22.44,18H6.967a.967.967,0,1,0,0,1.934H22.44a.967.967,0,1,0,0-1.934Z" transform="translate(-0.198 -3.86)" fill="#848484"/>
    <circle id="Ellipse_19" data-name="Ellipse 19" cx="1.271" cy="1.271" r="1.271" fill="#848484"/>
    <circle id="Ellipse_20" data-name="Ellipse 20" cx="1.271" cy="1.271" r="1.271" transform="translate(0 7.629)" fill="#848484"/>
    <circle id="Ellipse_21" data-name="Ellipse 21" cx="1.271" cy="1.271" r="1.271" transform="translate(0 13.986)" fill="#848484"/>
  </g>
</svg>
