<svg xmlns="http://www.w3.org/2000/svg" width="22.885" height="17.483" viewBox="0 0 22.885 17.483">
  <g id="Icon_ionic-ios-menu" data-name="Icon ionic-ios-menu" transform="translate(-4.5 -10.125)">
    <path id="Path_1060" data-name="Path 1060" d="M26.432,12.623H5.454A1.135,1.135,0,0,1,4.5,11.374h0a1.135,1.135,0,0,1,.954-1.249H26.432a1.135,1.135,0,0,1,.954,1.249h0A1.135,1.135,0,0,1,26.432,12.623Z" fill="#3d3d3d"/>
    <path id="Path_1061" data-name="Path 1061" d="M26.432,19.373H5.454A1.135,1.135,0,0,1,4.5,18.124h0a1.135,1.135,0,0,1,.954-1.249H26.432a1.135,1.135,0,0,1,.954,1.249h0A1.135,1.135,0,0,1,26.432,19.373Z" transform="translate(0 0.743)" fill="#3d3d3d"/>
    <path id="Path_1062" data-name="Path 1062" d="M26.432,26.123H5.454A1.135,1.135,0,0,1,4.5,24.874h0a1.135,1.135,0,0,1,.954-1.249H26.432a1.135,1.135,0,0,1,.954,1.249h0A1.135,1.135,0,0,1,26.432,26.123Z" transform="translate(0 1.485)" fill="#3d3d3d"/>
  </g>
</svg>
