<svg xmlns="http://www.w3.org/2000/svg" xmlns:xlink="http://www.w3.org/1999/xlink" width="34.246" height="33.336" viewBox="0 0 34.246 33.336">
  <defs>
    <filter id="Rectangle_2198" x="0" y="0" width="34.246" height="33.336" filterUnits="userSpaceOnUse">
      <feOffset dy="3" input="SourceAlpha"/>
      <feGaussianBlur stdDeviation="1" result="blur"/>
      <feFlood flood-opacity="0.059"/>
      <feComposite operator="in" in2="blur"/>
      <feComposite in="SourceGraphic"/>
    </filter>
  </defs>
  <g id="Group_1607" data-name="Group 1607" transform="translate(-202.461 -405.743)">
    <g transform="matrix(1, 0, 0, 1, 202.46, 405.74)" filter="url(#Rectangle_2198)">
      <g id="Rectangle_2198-2" data-name="Rectangle 2198" transform="matrix(1, -0.02, 0.02, 1, 3, 0.48)" fill="#fff" stroke="#d4d4d4" stroke-width="0.05">
        <rect width="27.781" height="26.855" rx="13.428" stroke="none"/>
        <rect x="0.025" y="0.025" width="27.731" height="26.805" rx="13.403" fill="none"/>
      </g>
    </g>
    <path id="Icon_ionic-ios-heart-empty" data-name="Icon ionic-ios-heart-empty" d="M8.38,0H8.352A3.136,3.136,0,0,0,5.734,1.433,3.136,3.136,0,0,0,3.115,0H3.087A3.116,3.116,0,0,0,0,3.115,6.71,6.71,0,0,0,1.318,6.773a23.09,23.09,0,0,0,4.416,4.253,23.09,23.09,0,0,0,4.416-4.253,6.71,6.71,0,0,0,1.318-3.658A3.116,3.116,0,0,0,8.38,0ZM9.526,6.318a21.142,21.142,0,0,1-3.793,3.738A21.174,21.174,0,0,1,1.941,6.315a5.947,5.947,0,0,1-1.169-3.2A2.339,2.339,0,0,1,3.093.775h.025a2.311,2.311,0,0,1,1.133.3,2.409,2.409,0,0,1,.838.786.774.774,0,0,0,1.3,0,2.433,2.433,0,0,1,.838-.786,2.311,2.311,0,0,1,1.133-.3H8.38A2.339,2.339,0,0,1,10.7,3.115,6.022,6.022,0,0,1,9.526,6.318Z" transform="matrix(1, -0.017, 0.017, 1, 213.755, 414.335)" fill="#83888d"/>
  </g>
</svg>
