<svg id="location-svgrepo-com_1_" data-name="location-svgrepo-com (1)" xmlns="http://www.w3.org/2000/svg" width="9.563" height="16.317" viewBox="0 0 9.563 16.317">
  <path id="Path_1127" data-name="Path 1127" d="M59.424,0a4.787,4.787,0,0,0-4.781,4.781,4.738,4.738,0,0,0,.463,2.054l.02.041,3.613,6.995a.773.773,0,0,0,1.373,0l3.612-6.993.018-.037a4.737,4.737,0,0,0,.466-2.061A4.787,4.787,0,0,0,59.424,0Zm0,7.284a2.5,2.5,0,1,1,2.5-2.5A2.506,2.506,0,0,1,59.424,7.284Z" transform="translate(-54.643)" fill="#888484"/>
  <path id="Path_1128" data-name="Path 1128" d="M98.855,249.018H95.172a.464.464,0,0,0,0,.927h3.684a.464.464,0,1,0,0-.927Z" transform="translate(-92.232 -233.628)" fill="#888484"/>
</svg>
