<svg xmlns="http://www.w3.org/2000/svg" width="21.656" height="19.638" viewBox="0 0 21.656 19.638">
  <g id="masol_khrid" data-name="masol khrid" opacity="0.3">
    <g id="_g2WP5N_5nfEGUP8DynC_R" transform="translate(0 0)">
      <path id="_BeNugloa3uJGJwXTrqsy3" d="M194.5,937.822a.651.651,0,1,0-.033,1.3h2.2a1.116,1.116,0,0,1,1.034.734l2.9,8.976-1.268.9a1.69,1.69,0,0,0-.734,1.4v.1a1.745,1.745,0,0,0,1.735,1.735h14.482a.651.651,0,0,0,.033-1.3H200.308a.442.442,0,0,1-.434-.434v-.1a.659.659,0,0,1,.2-.367l1.535-1.068H211.92a1.514,1.514,0,0,0,1.435-1.034l2.035-6.273a1.524,1.524,0,0,0-1.435-1.969H201.409a.651.651,0,0,0-.033,1.3h12.546a.205.205,0,0,1,.2.3l-.4,1.235H203.144a.434.434,0,0,0,0,.868h10.311l-.567,1.735h-8.042a.434.434,0,1,0,0,.867h7.775l-.5,1.568a.183.183,0,0,1-.2.133H201.843l-2.9-8.943a2.364,2.364,0,0,0-2.236-1.635h-2.2Z" transform="translate(-193.834 -937.822)" fill-rule="evenodd"/>
      <path id="_A5gvgRHeQcouuHYj1Rh0Q" d="M283.009,1155.713a1.54,1.54,0,0,1-1.538,1.538h0a1.54,1.54,0,0,1-1.538-1.538h0a1.54,1.54,0,0,1,1.538-1.538h0a1.515,1.515,0,0,1,1.538,1.538Z" transform="translate(-273.191 -1137.612)"/>
      <path id="_A5gvgRHeQcouuHYj1Rh0Q-2" data-name="_A5gvgRHeQcouuHYj1Rh0Q" d="M283.009,1155.713a1.54,1.54,0,0,1-1.538,1.538h0a1.54,1.54,0,0,1-1.538-1.538h0a1.54,1.54,0,0,1,1.538-1.538h0a1.515,1.515,0,0,1,1.538,1.538Z" transform="translate(-262.871 -1137.612)"/>
    </g>
  </g>
</svg>
