<svg xmlns="http://www.w3.org/2000/svg" width="13.986" height="13.986" viewBox="0 0 13.986 13.986">
  <path id="Icon_awesome-user-circle" data-name="Icon awesome-user-circle" d="M6.993.563a6.993,6.993,0,1,0,6.993,6.993A6.992,6.992,0,0,0,6.993.563Zm0,2.707A2.481,2.481,0,1,1,4.512,5.751,2.481,2.481,0,0,1,6.993,3.269Zm0,9.7a5.4,5.4,0,0,1-4.131-1.923A3.144,3.144,0,0,1,5.639,9.36a.69.69,0,0,1,.2.031,3.733,3.733,0,0,0,1.153.195,3.719,3.719,0,0,0,1.153-.195.69.69,0,0,1,.2-.031,3.144,3.144,0,0,1,2.777,1.686A5.4,5.4,0,0,1,6.993,12.969Z" transform="translate(0 -0.563)" fill="#a8a8a8"/>
</svg>
