<svg xmlns="http://www.w3.org/2000/svg" width="18.445" height="22.134" viewBox="0 0 18.445 22.134">
  <path id="_3914193" data-name="3914193" d="M15.834,12.912a.922.922,0,0,1-.922.922H7.534a.922.922,0,1,1,0-1.845h7.378A.922.922,0,0,1,15.834,12.912Zm-3.689,2.767H7.534a.922.922,0,1,0,0,1.845h4.611a.922.922,0,1,0,0-1.845Zm8.3-6.008v7.853a4.617,4.617,0,0,1-4.611,4.611H6.611A4.617,4.617,0,0,1,2,17.523V4.611A4.617,4.617,0,0,1,6.611,0h4.164A6.417,6.417,0,0,1,15.34,1.891l3.213,3.215A6.411,6.411,0,0,1,20.445,9.67ZM14.036,3.195a4.62,4.62,0,0,0-.969-.719v3.98a.922.922,0,0,0,.922.922h3.98a4.6,4.6,0,0,0-.72-.968ZM18.6,9.67c0-.152-.03-.3-.043-.447H13.989a2.767,2.767,0,0,1-2.767-2.767V1.888c-.149-.014-.3-.043-.447-.043H6.611A2.767,2.767,0,0,0,3.845,4.611V17.523A2.767,2.767,0,0,0,6.611,20.29h9.223A2.767,2.767,0,0,0,18.6,17.523Z" transform="translate(-2 0)" fill="#848484"/>
</svg>
