<svg xmlns="http://www.w3.org/2000/svg" width="8.764" height="17" viewBox="0 0 8.764 17">
  <path id="Icon_ionic-ios-attach" data-name="Icon ionic-ios-attach" d="M18.048,7.148a.593.593,0,0,0-.592.592v7.375a3.059,3.059,0,0,1-.835,2.09,3,3,0,0,1-2.106.9H14a2.949,2.949,0,0,1-2.079-.933,3.046,3.046,0,0,1-.907-2.094V5.562a2.062,2.062,0,0,1,.656-1.5,2.257,2.257,0,0,1,1.555-.618,2.112,2.112,0,0,1,2.132,2.117v8.885a1.2,1.2,0,0,1-1.1,1.222,1.166,1.166,0,0,1-1.07-1.222V9.379a.592.592,0,1,0-1.184,0v5.069a2.276,2.276,0,0,0,3.874,1.707,2.4,2.4,0,0,0,.664-1.707V5.562A3.316,3.316,0,0,0,13.214,2.25a3.329,3.329,0,0,0-2.36.967,3.273,3.273,0,0,0-.983,2.348v9.515a4.24,4.24,0,0,0,1.237,2.959A4.1,4.1,0,0,0,14,19.25h.516a4.144,4.144,0,0,0,2.88-1.218A4.262,4.262,0,0,0,18.3,16.72a3.972,3.972,0,0,0,.338-1.6V7.74A.587.587,0,0,0,18.048,7.148Z" transform="translate(18.636 19.25) rotate(180)" fill="#919191"/>
</svg>
