<svg xmlns="http://www.w3.org/2000/svg" width="20.64" height="20.64" viewBox="0 0 20.64 20.64">
  <path id="_3916657" data-name="3916657" d="M20.64,8.6a.85.85,0,0,0-.021-.187L19.5,3.367A4.273,4.273,0,0,0,15.3,0H5.339a4.273,4.273,0,0,0-4.2,3.367L.021,8.413A.85.85,0,0,0,0,8.6v.86a3.426,3.426,0,0,0,.86,2.273V16.34a4.305,4.305,0,0,0,4.3,4.3H15.48a4.305,4.305,0,0,0,4.3-4.3V11.733a3.426,3.426,0,0,0,.86-2.273ZM1.72,8.694l1.1-4.954A2.565,2.565,0,0,1,5.339,1.72H6.02V4.3a.86.86,0,1,0,1.72,0V1.72H12.9V4.3a.86.86,0,1,0,1.72,0V1.72H15.3a2.565,2.565,0,0,1,2.518,2.02l1.1,4.954V9.46a1.72,1.72,0,0,1-1.72,1.72h-.86a1.72,1.72,0,0,1-1.72-1.72.86.86,0,1,0-1.72,0,1.72,1.72,0,0,1-1.72,1.72H9.46A1.72,1.72,0,0,1,7.74,9.46a.86.86,0,1,0-1.72,0A1.72,1.72,0,0,1,4.3,11.18H3.44A1.72,1.72,0,0,1,1.72,9.46ZM15.48,18.92H5.16a2.58,2.58,0,0,1-2.58-2.58V12.791a3.421,3.421,0,0,0,.86.109H4.3a3.431,3.431,0,0,0,2.58-1.167A3.431,3.431,0,0,0,9.46,12.9h1.72a3.431,3.431,0,0,0,2.58-1.167A3.431,3.431,0,0,0,16.34,12.9h.86a3.421,3.421,0,0,0,.86-.109V16.34A2.58,2.58,0,0,1,15.48,18.92Z" transform="translate(0 0)" fill="#848484"/>
</svg>
