<svg xmlns="http://www.w3.org/2000/svg" width="20.116" height="20.116" viewBox="0 0 20.116 20.116">
  <path id="Icon_ionic-ios-close-circle" data-name="Icon ionic-ios-close-circle" d="M13.433,3.375A10.058,10.058,0,1,0,23.491,13.433,10.056,10.056,0,0,0,13.433,3.375Zm2.548,13.7-2.548-2.548-2.548,2.548a.773.773,0,1,1-1.093-1.093l2.548-2.548L9.792,10.885a.773.773,0,1,1,1.093-1.093l2.548,2.548,2.548-2.548a.773.773,0,0,1,1.093,1.093l-2.548,2.548,2.548,2.548a.776.776,0,0,1,0,1.093A.768.768,0,0,1,15.981,17.074Z" transform="translate(-3.375 -3.375)" fill="#a1a1a1"/>
</svg>
